<?xml version="1.0" encoding="utf-8"?>
<!-- Generator: Adobe Illustrator 19.0.0, SVG Export Plug-In . SVG Version: 6.00 Build 0)  -->
<svg version="1.1" id="layer" xmlns="http://www.w3.org/2000/svg" xmlns:xlink="http://www.w3.org/1999/xlink" x="0px" y="0px"
	 viewBox="-153 -46 652 652" style="enable-background:new -153 -46 652 652;" xml:space="preserve">
<style type="text/css">
	.st0{fill:#E31134;}
</style>
<polygon points="441.6,499.9 421.2,441.6 404.9,441.6 404.9,529.9 416.3,529.9 416.3,460.1 441.2,529.9 453.2,529.9 453.2,441.6 
	441.6,441.6 "/>
<rect x="-105.3" y="29.9" class="st0" width="35.9" height="251.1"/>
<rect x="-23.3" y="122.1" class="st0" width="35.9" height="158.9"/>
<rect x="74" y="122.1" class="st0" width="35.9" height="158.9"/>
<rect x="156" y="29.9" class="st0" width="35.9" height="251.1"/>
<rect x="253.4" y="122.1" class="st0" width="35.9" height="158.9"/>
<rect x="335.4" y="122.1" class="st0" width="35.9" height="158.9"/>
<rect x="417.4" y="122.1" class="st0" width="35.9" height="158.9"/>
<polygon points="-93.7,374.9 -70.8,374.9 -70.8,415.8 -59.2,415.8 -59.2,327.5 -70.8,327.5 -70.8,364.7 -93.7,364.7 -93.7,327.5 
	-105.3,327.5 -105.3,415.8 -93.7,415.8 "/>
<g>
	<path d="M-22.8,406.8c-5.9,0-13.8-3.6-13.8-35.1c0-31.5,7.9-35.1,13.8-35.1c5.9,0,13.8,3.6,13.8,35.1
		C-9,403.1-16.9,406.8-22.8,406.8 M-22.8,326.3c-16.9,0-25.4,15.2-25.4,45.3c0,30.1,8.6,45.3,25.4,45.3c16.9,0,25.4-15.2,25.4-45.3
		C2.6,341.6-5.9,326.3-22.8,326.3"/>
	<path d="M37.3,417c15.2,0,24.1-11.3,24.4-30.9l0-1.2H50.1l0,1.2c-0.2,14.3-4.1,20.7-12.8,20.7c-10.4,0-14.4-9.8-14.4-35.1
		c0-25.3,4-35.1,14.4-35.1c6.8,0,10.5,5.8,11.6,18.2l0.1,1.1h11.6l-0.1-1.3c-1.4-18.5-9.4-28.2-23.2-28.2c-17.5,0-26,14.8-26,45.3
		C11.2,402.1,19.8,417,37.3,417"/>
</g>
<polygon points="119.2,415.8 119.2,327.5 107.6,327.5 107.6,364.7 84.7,364.7 84.7,327.5 73.1,327.5 73.1,415.8 84.7,415.8 
	84.7,374.9 107.6,374.9 107.6,415.8 "/>
<g>
	<path d="M155.1,364.7c-7.8-5.3-14.5-9.8-14.5-18c0-6.1,4.3-10.1,10.6-10.1c7.2,0,11.3,4.8,12,14.4l0.1,1.1h10.9l-0.1-1.2
		c-0.7-15.3-9.1-24.4-22.3-24.4c-13.1,0-21.9,8.5-21.9,21.2c0,13.6,9.8,20.4,19.2,27c7.9,5.5,15.3,10.7,15.3,19.3
		c0,8.1-4.3,13-11.6,13c-8.1,0-12.8-5.4-13-15.3l0-1.1H129l0,1.2c0.3,15.4,9.3,25.4,22.9,25.4c14.7,0,23.2-8.4,23.2-23.1
		C175.2,378.3,164.5,371.1,155.1,364.7"/>
	<path d="M221.8,386c-0.2,14.3-4.1,20.7-12.8,20.7c-10.4,0-14.4-9.8-14.4-35.1c0-25.3,4-35.1,14.4-35.1c6.8,0,10.5,5.8,11.6,18.2
		l0.1,1.1h11.6l-0.1-1.3c-1.4-18.5-9.5-28.2-23.2-28.2c-17.5,0-26,14.8-26,45.3c0,30.5,8.5,45.3,26,45.3c15.2,0,24.1-11.3,24.4-30.9
		l0-1.2h-11.6L221.8,386z"/>
</g>
<polygon points="256.5,374.9 279.4,374.9 279.4,415.8 291,415.8 291,327.5 279.4,327.5 279.4,364.7 256.5,364.7 256.5,327.5 
	244.9,327.5 244.9,415.8 256.5,415.8 "/>
<g>
	<path d="M350.3,392v-64.5h-11.6v64.2c0,10.4-3.5,15-11.4,15c-7.9,0-11.4-4.6-11.4-15v-64.2h-11.6V392c0,16.1,8.2,25,23.1,25
		C342.1,417,350.3,408.1,350.3,392"/>
</g>
<polygon points="403.4,405.6 375.6,405.6 375.6,327.5 364,327.5 364,415.8 403.4,415.8 "/>
<polygon points="421.9,405.6 421.9,374.9 444,374.9 444,364.7 421.9,364.7 421.9,337.7 451.8,337.7 451.8,327.5 410.2,327.5 
	410.2,415.8 453.3,415.8 453.3,405.6 "/>
<g>
	<path d="M-93.7,451.8h3.8c12.8,0,20.2,5.6,20.2,33.9c0,28.4-7.4,33.9-20.2,33.9h-3.8V451.8z M-88.2,441.6h-17.1v88.2h17.1
		c20.9,0,30.2-13.6,30.2-44.1C-58,455.2-67.3,441.6-88.2,441.6"/>
</g>
<polygon points="-28.9,489 -6.8,489 -6.8,478.8 -28.9,478.8 -28.9,451.8 1.1,451.8 1.1,441.6 -40.5,441.6 -40.5,529.9 2.5,529.9 
	2.5,519.7 -28.9,519.7 "/>
<g>
	<path d="M32,451.8h6.9c11.8,0,16.4,3.8,16.4,13.7c0,9.9-4.6,13.7-16.4,13.7H32V451.8z M67,465.1c0-14.2-9.7-23.4-24.7-23.4H20.4
		v88.2H32v-40.3l10.1-0.4l13.5,39.9l0.3,0.8h12.2l-14.7-43.1C62.2,483.3,67,475.6,67,465.1"/>
</g>
<polygon points="137.5,491.2 123.3,441.6 106.5,441.6 106.5,529.9 117.4,529.9 117.4,459.4 133.4,512.1 141.3,512.1 157.3,459.4 
	157.3,529.9 168.2,529.9 168.2,441.6 151.4,441.6 "/>
<polygon points="199,489 221.1,489 221.1,478.8 199,478.8 199,451.8 229,451.8 229,441.6 187.4,441.6 187.4,529.9 230.4,529.9 
	230.4,519.7 199,519.7 "/>
<g>
	<path d="M259.6,451.8h3.8c12.8,0,20.3,5.6,20.3,33.9c0,28.4-7.4,33.9-20.3,33.9h-3.8V451.8z M265.1,441.6H248v88.2h17.1
		c20.9,0,30.2-13.6,30.2-44.1C295.3,455.2,286,441.6,265.1,441.6"/>
</g>
<rect x="312.8" y="441.6" width="11.6" height="88.2"/>
<polygon points="355.8,489 377.9,489 377.9,478.8 355.8,478.8 355.8,451.8 385.7,451.8 385.7,441.6 344.1,441.6 344.1,529.9 
	387.2,529.9 387.2,519.7 355.8,519.7 "/>
</svg>
